<svg width="429.875px" height="122px" xmlns="http://www.w3.org/2000/svg" viewBox="35.0625 14 429.875 122" style="background: rgba(0, 0, 0, 0);" preserveAspectRatio="xMidYMid"><defs><filter id="editing-hole" x="-100%" y="-100%" width="300%" height="300%"><feFlood flood-color="#000" result="black"></feFlood><feMorphology operator="dilate" radius="2" in="SourceGraphic" result="erode"></feMorphology><feGaussianBlur in="erode" stdDeviation="4" result="blur"></feGaussianBlur><feOffset in="blur" dx="2" dy="2" result="offset"></feOffset><feComposite operator="atop" in="offset" in2="black" result="merge"></feComposite><feComposite operator="in" in="merge" in2="SourceGraphic" result="inner-shadow"></feComposite></filter></defs><g filter="url(#editing-hole)"><g transform="translate(99.66499543190002, 99)"><path d="M28.42-9.86L28.42-9.86L28.42-9.86Q29.63-8.32 29.63-5.82L29.63-5.82L29.63-5.82Q29.63-2.37 27.07-0.54L27.07-0.54L27.07-0.54Q24.51 1.28 20.48 1.28L20.48 1.28L20.48 1.28Q18.18 1.28 14.66 0.77L14.66 0.77L14.66 0.77Q7.74-0.32 5.63-0.32L5.63-0.32L5.63-0.32Q3.52-0.32 2.69-0.22L2.69-0.22L2.69-0.22Q1.86-0.13 0.51 0L0.51 0L8.38-42.24L35.97-42.24L35.97-42.24Q35.97-38.34 34.08-36.29L34.08-36.29L34.08-36.29Q32.19-34.24 28.48-34.24L28.48-34.24L28.48-34.24Q24.77-34.24 20.99-35.97L20.99-35.97L19.01-24.77L30.40-24.77L30.40-24.77Q30.40-21.38 28.74-19.49L28.74-19.49L28.74-19.49Q27.07-17.60 24.29-17.60L24.29-17.60L24.29-17.60Q21.50-17.60 19.78-18.24L19.78-18.24L19.78-18.24Q18.05-18.88 17.86-19.07L17.86-19.07L15.55-6.98L15.55-6.98Q17.09-6.78 19.97-6.78L19.97-6.78L19.97-6.78Q24.90-6.78 28.42-9.86ZM44.03 0.19L44.03 0.19L44.03 0.19Q41.98 1.28 39.17 1.28L39.17 1.28L39.17 1.28Q36.35 1.28 34.82-0.16L34.82-0.16L34.82-0.16Q33.28-1.60 33.28-4.38L33.28-4.38L33.28-4.38Q33.28-7.17 35.23-9.89L35.23-9.89L35.23-9.89Q37.18-12.61 40.10-14.14L40.10-14.14L40.10-14.14Q43.01-15.68 45.06-16.58L45.06-16.58L41.02-25.86L41.02-25.86Q39.94-28.22 37.89-28.22L37.89-28.22L37.38-28.16L37.18-28.16L37.18-28.16Q37.57-30.40 40.19-32.13L40.19-32.13L40.19-32.13Q42.82-33.92 45.82-33.92L45.82-33.92L45.82-33.92Q50.69-33.92 52.93-29.06L52.93-29.06L53.44-28.03L56.19-21.25L56.19-21.25Q57.92-22.02 58.66-23.46L58.66-23.46L58.66-23.46Q59.39-24.90 59.39-27.74L59.39-27.74L59.39-27.74Q59.39-30.59 57.86-32.38L57.86-32.38L57.86-32.38Q60.29-33.92 63.49-33.92L63.49-33.92L63.49-33.92Q69.25-33.92 69.25-28.35L69.25-28.35L69.25-28.35Q69.25-22.27 61.63-18.75L61.63-18.75L57.79-16.96L61.25-8.06L61.25-8.06Q62.27-5.38 64.13-4.22L64.13-4.22L64.13-4.22Q64.90-3.71 65.79-3.65L65.79-3.65L65.79-3.65Q63.87-0.51 59.71 0.90L59.71 0.90L59.71 0.90Q58.43 1.28 56.70 1.28L56.70 1.28L56.70 1.28Q54.98 1.28 52.99 0.10L52.99 0.10L52.99 0.10Q51.01-1.09 50.30-2.94L50.30-2.94L46.78-12.10L46.78-12.10Q43.20-10.50 43.20-4.67L43.20-4.67L43.20-4.67Q43.20-1.98 44.03 0.19ZM84.61 1.28L84.61 1.28L84.61 1.28Q70.53 1.28 70.53-11.97L70.53-11.97L70.53-11.97Q70.53-21.38 75.71-27.46L75.71-27.46L75.71-27.46Q81.22-33.92 90.75-33.92L90.75-33.92L90.75-33.92Q97.66-33.92 101.18-30.72L101.18-30.72L101.18-30.72Q104.70-27.52 104.70-20.80L104.70-20.80L104.70-20.80Q104.70-10.56 99.20-4.61L99.20-4.61L99.20-4.61Q93.82 1.28 84.61 1.28ZM86.27-26.56L86.27-26.56L86.27-26.56Q85.50-24.83 84.90-22.24L84.90-22.24L84.90-22.24Q84.29-19.65 83.52-15.55L83.52-15.55L83.52-15.55Q82.75-11.46 82.75-6.40L82.75-6.40L82.75-6.40Q82.75-4.74 83.30-3.65L83.30-3.65L83.30-3.65Q83.84-2.56 85.31-2.56L85.31-2.56L85.31-2.56Q86.78-2.56 87.71-3.26L87.71-3.26L87.71-3.26Q88.64-3.97 89.34-5.63L89.34-5.63L89.34-5.63Q90.62-8.58 91.65-14.05L91.65-14.05L91.65-14.05Q92.67-19.52 92.77-21.89L92.77-21.89L92.77-21.89Q92.86-24.26 92.86-26.02L92.86-26.02L92.86-26.02Q92.86-27.78 92.35-28.93L92.35-28.93L92.35-28.93Q91.84-30.08 90.40-30.08L90.40-30.08L90.40-30.08Q88.96-30.08 88.00-29.18L88.00-29.18L88.00-29.18Q87.04-28.29 86.27-26.56ZM107.84-0.32L107.84-0.32L115.90-42.24L115.90-42.24Q123.46-42.88 128.32-42.88L128.32-42.88L128.32-42.88Q133.18-42.88 136.32-42.46L136.32-42.46L136.32-42.46Q139.46-42.05 141.57-40.96L141.57-40.96L141.57-40.96Q145.79-38.91 145.79-33.28L145.79-33.28L145.79-33.28Q145.79-30.02 142.98-27.26L142.98-27.26L142.98-27.26Q140.35-24.77 137.47-24.19L137.47-24.19L137.47-24.19Q140.54-23.68 142.72-21.38L142.72-21.38L142.72-21.38Q145.02-18.94 145.02-15.17L145.02-15.17L145.02-15.17Q145.02-7.87 139.58-3.62L139.58-3.62L139.58-3.62Q134.14 0.64 123.46 0.64L123.46 0.64L123.46 0.64Q116.10 0.64 107.84-0.32ZM125.25-20.61L122.05-4.03L122.05-4.03Q122.62-3.97 122.75-3.97L122.75-3.97L123.33-3.97L123.33-3.97Q128.58-3.97 130.82-7.42L130.82-7.42L130.82-7.42Q132.48-10.11 132.48-15.04L132.48-15.04L132.48-15.04Q132.48-17.66 130.78-19.07L130.78-19.07L130.78-19.07Q129.09-20.48 125.25-20.61L125.25-20.61ZM134.98-33.22L134.98-33.22L134.98-33.22Q134.98-38.53 129.86-38.53L129.86-38.53L129.28-38.53L129.28-38.53Q129.02-38.53 128.64-38.46L128.64-38.46L126.08-24.96L126.72-24.96L126.72-24.96Q134.98-25.15 134.98-33.22ZM169.79-2.69L169.79-2.69L169.79-2.69Q166.72 1.28 159.10 1.28L159.10 1.28L159.10 1.28Q155.14 1.28 152.26-1.12L152.26-1.12L152.26-1.12Q149.38-3.52 149.38-6.98L149.38-6.98L149.38-6.98Q149.38-8.90 149.57-9.86L149.57-9.86L153.86-32.64L166.85-33.92L162.18-9.22L162.18-9.22Q161.92-7.81 161.92-6.98L161.92-6.98L161.92-6.98Q161.92-3.26 164.16-3.26L164.16-3.26L164.16-3.26Q166.66-3.26 168.45-6.66L168.45-6.66L168.45-6.66Q169.02-7.74 169.28-9.15L169.28-9.15L173.82-32.64L186.43-33.92L181.70-8.96L181.70-8.96Q181.50-8 181.50-6.98L181.50-6.98L181.50-6.98Q181.50-5.95 182.08-4.83L182.08-4.83L182.08-4.83Q182.66-3.71 184.51-3.46L184.51-3.46L184.51-3.46Q184.13-1.92 182.78-0.90L182.78-0.90L182.78-0.90Q179.97 1.28 176.93 1.28L176.93 1.28L176.93 1.28Q173.89 1.28 172.10 0.19L172.10 0.19L172.10 0.19Q170.30-0.90 169.79-2.69ZM205.25-3.52L205.25-3.52L205.25-3.52Q203.26 1.28 196.93 1.28L196.93 1.28L196.93 1.28Q193.66 1.28 191.62-0.96L191.62-0.96L191.62-0.96Q189.89-2.94 189.89-4.93L189.89-4.93L189.89-4.93Q189.89-10.11 192.26-20.22L192.26-20.22L194.62-32.64L207.62-33.92L203.71-13.70L203.71-13.70Q202.62-8.96 202.62-7.30L202.62-7.30L202.62-7.30Q202.62-3.65 205.25-3.52ZM195.78-41.54L195.78-41.54L195.78-41.54Q195.78-44.03 197.86-45.38L197.86-45.38L197.86-45.38Q199.94-46.72 202.94-46.72L202.94-46.72L202.94-46.72Q205.95-46.72 207.78-45.38L207.78-45.38L207.78-45.38Q209.60-44.03 209.60-41.54L209.60-41.54L209.60-41.54Q209.60-39.04 207.58-37.76L207.58-37.76L207.58-37.76Q205.57-36.48 202.56-36.48L202.56-36.48L202.56-36.48Q199.55-36.48 197.66-37.76L197.66-37.76L197.66-37.76Q195.78-39.04 195.78-41.54ZM225.98-3.52L225.98-3.52L225.98-3.52Q224.00 1.28 217.66 1.28L217.66 1.28L217.66 1.28Q214.46 1.28 212.42-0.96L212.42-0.96L212.42-0.96Q210.75-2.82 210.75-4.93L210.75-4.93L210.75-4.93Q210.75-9.73 212.99-20.22L212.99-20.22L217.66-44.80L230.66-46.08L224.45-13.70L224.45-13.70Q223.36-8.96 223.36-7.30L223.36-7.30L223.36-7.30Q223.36-3.65 225.98-3.52ZM251.58-33.92L251.58-33.92L251.58-33.92Q253.89-33.92 255.68-33.41L255.68-33.41L255.68-33.41Q255.74-33.66 255.87-34.37L255.87-34.37L256.19-36.35L256.19-36.35Q256.45-37.63 256.83-39.74L256.83-39.74L257.86-44.80L270.59-46.08L263.49-8.96L263.49-8.96Q263.42-8.58 263.42-7.94L263.42-7.94L263.42-6.91L263.42-6.91Q263.42-5.50 264.13-4.45L264.13-4.45L264.13-4.45Q264.83-3.39 265.98-3.39L265.98-3.39L265.98-3.39Q264.70-0.38 260.80 0.90L260.80 0.90L260.80 0.90Q259.46 1.28 257.57 1.28L257.57 1.28L257.57 1.28Q255.68 1.28 253.95 0.29L253.95 0.29L253.95 0.29Q252.22-0.70 251.71-2.37L251.71-2.37L251.71-2.37Q250.69-0.70 248.64 0.29L248.64 0.29L248.64 0.29Q246.59 1.28 243.62 1.28L243.62 1.28L243.62 1.28Q240.64 1.28 238.18 0.51L238.18 0.51L238.18 0.51Q235.71-0.26 234.18-1.92L234.18-1.92L234.18-1.92Q231.36-5.18 231.36-12.61L231.36-12.61L231.36-12.61Q231.36-22.21 236.99-28.03L236.99-28.03L236.99-28.03Q242.62-33.92 251.58-33.92ZM251.14-30.08L251.14-30.08L251.14-30.08Q248.77-30.08 247.49-27.52L247.49-27.52L247.49-27.52Q246.21-24.96 244.90-18.62L244.90-18.62L244.90-18.62Q243.58-12.29 243.58-6.59L243.58-6.59L243.58-6.59Q243.58-2.69 245.89-2.69L245.89-2.69L245.89-2.69Q247.94-2.69 249.38-4.74L249.38-4.74L249.38-4.74Q250.82-6.78 251.39-10.18L251.39-10.18L254.85-28.93L254.85-28.93Q253.50-30.08 251.14-30.08ZM290.56-22.46L290.56-22.46L290.56-22.46Q291.46-24.83 291.46-26.88L291.46-26.88L291.46-26.88Q291.46-30.66 288.38-30.66L288.38-30.66L288.38-30.66Q286.78-30.66 285.47-29.22L285.47-29.22L285.47-29.22Q284.16-27.78 284.16-25.98L284.16-25.98L284.16-25.98Q284.16-24.70 285.18-23.68L285.18-23.68L285.18-23.68Q286.66-22.27 290.43-19.97L290.43-19.97L290.43-19.97Q294.21-17.66 295.65-15.78L295.65-15.78L295.65-15.78Q297.09-13.89 297.09-11.30L297.09-11.30L297.09-11.30Q297.09-8.70 295.84-6.34L295.84-6.34L295.84-6.34Q294.59-3.97 292.35-2.30L292.35-2.30L292.35-2.30Q287.55 1.28 279.87 1.28L279.87 1.28L279.87 1.28Q275.71 1.28 272.51-0.90L272.51-0.90L272.51-0.90Q269.31-3.01 269.31-5.50L269.31-5.50L269.31-5.50Q269.31-8 271.14-9.47L271.14-9.47L271.14-9.47Q272.96-10.94 275.65-10.94L275.65-10.94L275.65-10.94Q278.34-10.94 280-9.92L280-9.92L280-9.92Q279.17-7.81 279.17-6.40L279.17-6.40L279.17-6.40Q279.17-2.18 282.75-2.18L282.75-2.18L282.75-2.18Q284.29-2.18 285.31-3.14L285.31-3.14L285.31-3.14Q286.34-4.10 286.34-5.76L286.34-5.76L286.34-5.76Q286.34-9.02 280.83-12.48L280.83-12.48L280.83-12.48Q276.35-15.42 275.33-16.58L275.33-16.58L275.33-16.58Q273.60-18.62 273.60-21.18L273.60-21.18L273.60-21.18Q273.60-23.74 274.82-26.18L274.82-26.18L274.82-26.18Q276.03-28.61 278.27-30.34L278.27-30.34L278.27-30.34Q282.94-33.92 291.07-33.92L291.07-33.92L291.07-33.92Q295.23-33.92 297.70-32.26L297.70-32.26L297.70-32.26Q300.16-30.59 300.16-27.78L300.16-27.78L300.16-27.78Q300.16-24.96 298.46-23.36L298.46-23.36L298.46-23.36Q296.77-21.76 293.70-21.76L293.70-21.76L293.70-21.76Q291.58-21.76 290.56-22.46Z" fill="#ccc"></path></g></g><style>text {
  font-size: 64px;
  font-family: Arial Black;
  dominant-baseline: central;
  text-anchor: middle;
}</style></svg>